# xmcd CD database file
#
# Track frame offsets:
#	150
#	15786
#	28433
#	41170
#	55949
#	71095
#	90236
#	108222
#	125147
#	147272
#	160617
#	178676
#	191241
#	202838
#	212802
#	228954
#	245852
#	259241
#
# Disc length: 3645 seconds
#
# Revision: 0
# Processed by: cddbd v1.5.2PL0 Copyright (c) Steve Scherf et al.
# Submitted via: Feurio! 1.68 - http://www.feurio.com
#
DISCID=030e3b12
DTITLE=Heiner Pudelko - Pudelko Blues
DYEAR=1900
DGENRE=Deutscher Blues
TTITLE0=Interzone - kinderlied
TTITLE1=Interzone - blnw
TTITLE2=Interzone - jobs
TTITLE3=Interzone - rita and klaus
TTITLE4=Interzone - dilettanten des wunders
TTITLE5=Interzone - die lebendigen and die toten
TTITLE6=Interzone - glotze
TTITLE7=Interzone - die jungs nebenan
TTITLE8=Interzone - aus liebe
TTITLE9=Interzone - das spiel ist aus
TTITLE10=Interzone - eisenmann
TTITLE11=Interzone - die pest ist da
TTITLE12=Interzone - deutschlandlied
TTITLE13=Interzone - küsse aus stahlbeton
TTITLE14=Interzone - was ich an dir mag
TTITLE15=Interzone - prinzessin aus köln
TTITLE16=Interzone - hasso fass
TTITLE17=Interzone - adam jr.
EXTD=
EXTT0=
EXTT1=
EXTT2=
EXTT3=
EXTT4=
EXTT5=
EXTT6=
EXTT7=
EXTT8=
EXTT9=
EXTT10=
EXTT11=
EXTT12=
EXTT13=
EXTT14=
EXTT15=
EXTT16=
EXTT17=
PLAYORDER=
